<svg fill="#000000" height="200px" width="200px" version="1.1" id="Capa_1" xmlns="http://www.w3.org/2000/svg" xmlns:xlink="http://www.w3.org/1999/xlink" viewBox="0 0 275.18 275.18" xml:space="preserve"><g id="SVGRepo_bgCarrier" stroke-width="0"></g><g id="SVGRepo_tracerCarrier" stroke-linecap="round" stroke-linejoin="round"></g><g id="SVGRepo_iconCarrier"> <path d="M262.266,125.15c0-34.069-26.213-62.133-59.551-65.085C200.021,26.495,171.838,0,137.584,0 c-34.248,0-62.426,26.493-65.119,60.063c-33.328,2.939-59.551,31.009-59.551,65.087c0,35.243,28.062,64.04,63.017,65.27 c16.193,4.061,27.464,18.484,27.464,35.248v43.512c0,3.314,2.687,6,6,6h56.391c3.313,0,6-2.686,6-6v-43.512 c0-16.764,11.271-31.188,27.464-35.248C234.204,189.19,262.266,160.394,262.266,125.15z M159.785,225.668v37.512h-44.391v-37.512 c0-15.254-7.022-29.047-18.353-37.975c3.739-1.129,7.383-2.594,10.881-4.383c1.54,0.789,3.111,1.509,4.703,2.17l18.662,28.663 c0.018,0.027,0.039,0.05,0.057,0.076c0.106,0.158,0.22,0.311,0.342,0.459c0.039,0.048,0.077,0.095,0.117,0.142 c0.125,0.143,0.259,0.279,0.4,0.412c0.034,0.032,0.065,0.066,0.1,0.098c0.155,0.14,0.318,0.273,0.49,0.398 c0.008,0.006,0.017,0.01,0.025,0.016c0.241,0.173,0.494,0.326,0.755,0.46c0.067,0.035,0.136,0.061,0.204,0.093 c0.19,0.089,0.383,0.169,0.581,0.237c0.098,0.034,0.196,0.064,0.295,0.093c0.183,0.053,0.368,0.095,0.555,0.13 c0.091,0.018,0.182,0.038,0.273,0.051c0.278,0.039,0.558,0.064,0.839,0.064c0.041,0,0.082-0.008,0.123-0.009 c0.211-0.005,0.421-0.018,0.63-0.044c0.106-0.014,0.21-0.036,0.315-0.056c0.153-0.027,0.304-0.059,0.455-0.098 c0.106-0.028,0.211-0.06,0.316-0.094c0.161-0.052,0.318-0.112,0.475-0.177c0.085-0.036,0.17-0.069,0.254-0.109 c0.24-0.113,0.474-0.239,0.699-0.385c0.001-0.001,0.002-0.002,0.003-0.002h0.001c0.056-0.037,0.107-0.08,0.163-0.118 c0.129-0.091,0.257-0.183,0.377-0.281c0.059-0.049,0.114-0.102,0.171-0.153c0.116-0.103,0.228-0.208,0.335-0.318 c0.049-0.051,0.096-0.103,0.143-0.155c0.114-0.128,0.222-0.259,0.324-0.394c0.022-0.03,0.048-0.056,0.07-0.086l20.787-28.664 c1.798-0.727,3.566-1.533,5.298-2.42c3.501,1.789,7.145,3.253,10.883,4.383C166.809,196.617,159.785,210.413,159.785,225.668z M136.582,200.282L129.9,190.02c2.545,0.305,5.111,0.459,7.684,0.459c2.12,0,4.234-0.11,6.337-0.317L136.582,200.282z M196.925,178.48c-9.31,0-18.53-2.487-26.664-7.194c-0.93-0.538-1.967-0.807-3.005-0.807c-1.04,0-2.079,0.27-3.01,0.81 c-8.114,4.705-17.334,7.191-26.662,7.191c-9.326,0-18.541-2.486-26.649-7.19c-1.861-1.079-4.159-1.081-6.02-0.002 c-8.118,4.705-17.337,7.192-26.66,7.192c-29.412,0-53.341-23.924-53.341-53.329c0-29.412,23.929-53.341,53.367-53.341 c1.629,0,3.188-0.662,4.319-1.835c1.131-1.173,1.736-2.755,1.677-4.383c-0.004-0.124-0.012-0.245-0.023-0.388 C84.325,35.854,108.221,12,137.584,12c29.369,0,53.271,23.854,53.341,53.203c-0.01,0.128-0.018,0.257-0.022,0.389 c-0.059,1.628,0.559,3.21,1.69,4.383c1.131,1.173,2.704,1.835,4.333,1.835c29.412,0,53.341,23.929,53.341,53.341 C250.266,154.556,226.337,178.48,196.925,178.48z"></path> </g></svg>
